<!DOCTYPE svg PUBLIC "-//W3C//DTD SVG 1.1//EN" "http://www.w3.org/Graphics/SVG/1.1/DTD/svg11.dtd">
<!-- Uploaded to: SVG Repo, www.svgrepo.com, Transformed by: SVG Repo Mixer Tools -->
<svg width="800px" height="800px" viewBox="0 0 24 24" fill="none" xmlns="http://www.w3.org/2000/svg">
<g id="SVGRepo_bgCarrier" stroke-width="0"/>
<g id="SVGRepo_tracerCarrier" stroke-linecap="round" stroke-linejoin="round"/>
<g id="SVGRepo_iconCarrier"> <path d="M18 2h-2v2h2V2zM4 4h6v2H4v14h14v-6h2v8H2V4h2zm4 8H6v6h6v-2h2v-2h-2v2H8v-4zm4-2h-2v2H8v-2h2V8h2V6h2v2h-2v2zm2-6h2v2h-2V4zm4 0h2v2h2v2h-2v2h-2v2h-2v-2h2V8h2V6h-2V4zm-4 8h2v2h-2v-2z" fill="#ffffff"/> </g>
</svg>